# xmcd
#
# Track frame offsets: 
#        150
#        10105
#        21863
#        30592
#        43229
#        55647
#        68947
#        82024
#        92008
#        102357
#        112036
#        123834
#        137688
#        151424
#        162190
#        174679
#        188312
#        200430
#        211166
#        221499
#        232603
#        244721
#        255913
#        267081
#        278679
#
# Disc length: 3859 seconds
#
# Revision: 1
# Processed by: cddbd v1.5.2PL0 Copyright (c) Steve Scherf et al.
# Submitted via: ExactAudioCopyFreeDBPlugin 1.0
#
DISCID=450f1119
DTITLE=Various Artist - Soul Sixties [Real Gone Music]
DYEAR=2017
DGENRE=Soul
TTITLE0=Ronnie and The Relatives - I Want a Boy
TTITLE1=The Tops - Puppy Love
TTITLE2=Otis Redding - Shout Bamalama
TTITLE3=The Del-Phis - I'll Let You Know
TTITLE4=James Brown - I Don't Mind
TTITLE5=The Supremes - Buttered Popcorn
TTITLE6=The Contours - Whole Lotta' Woman
TTITLE7=Dobie Gray - Kissin' Doll
TTITLE8=Maxine Brown - Funny
TTITLE9=The Olympics - The Stomp
TTITLE10=Dee Clark - Don't Walk Away from Me
TTITLE11=Marvin Gaye - Let Your Conscience Be Your Guide
TTITLE12=The Sensations - Let Me In
TTITLE13=Barbara George - I Know (You Don't Love Me No More)
TTITLE14=Roy Hamilton - You Can Have Her
TTITLE15=William Bell - You Don't Miss Your Water
TTITLE16=Chubby Checker and Dee Dee Sharp - Slow Twistin'
TTITLE17=Jimmy Ruffin - Don't Feel Sorry for Me
TTITLE18=Ruth Brown - Anyone But Me
TTITLE19=Sam and Dave - No More Pain
TTITLE20=The Shirelles - Baby It's You
TTITLE21=Solomon Burke - Cry to Me
TTITLE22=Joe Simon - I See Your Face
TTITLE23=Ernie K-Doe - Mother in Law
TTITLE24=The Spinners - Love (I'm So Glad) I Found You
EXTD=
EXTT0=
EXTT1=
EXTT2=
EXTT3=
EXTT4=
EXTT5=
EXTT6=
EXTT7=
EXTT8=
EXTT9=
EXTT10=
EXTT11=
EXTT12=
EXTT13=
EXTT14=
EXTT15=
EXTT16=
EXTT17=
EXTT18=
EXTT19=
EXTT20=
EXTT21=
EXTT22=
EXTT23=
EXTT24=
PLAYORDER=
